<?xml version="1.0" encoding="UTF-8" standalone="no"?>
<svg
   xmlns:dc="http://purl.org/dc/elements/1.1/"
   xmlns:cc="http://creativecommons.org/ns#"
   xmlns:rdf="http://www.w3.org/1999/02/22-rdf-syntax-ns#"
   xmlns:svg="http://www.w3.org/2000/svg"
   xmlns="http://www.w3.org/2000/svg"
   xmlns:sodipodi="http://sodipodi.sourceforge.net/DTD/sodipodi-0.dtd"
   xmlns:inkscape="http://www.inkscape.org/namespaces/inkscape"
   width="700"
   height="210"
   viewBox="0 0 185.20834 55.562499"
   version="1.1"
   id="svg8"
   inkscape:version="1.0.2-2 (e86c870879, 2021-01-15)"
   sodipodi:docname="Disponívl no googl play.svg">
  <defs
     id="defs2" />
  <sodipodi:namedview
     id="base"
     pagecolor="#ffffff"
     bordercolor="#666666"
     borderopacity="1.0"
     inkscape:pageopacity="0.0"
     inkscape:pageshadow="2"
     inkscape:zoom="0.70710678"
     inkscape:cx="298.44236"
     inkscape:cy="232.14262"
     inkscape:document-units="mm"
     inkscape:current-layer="layer1"
     inkscape:document-rotation="0"
     showgrid="false"
     inkscape:snap-global="false"
     units="px"
     inkscape:window-width="1920"
     inkscape:window-height="1017"
     inkscape:window-x="-8"
     inkscape:window-y="-8"
     inkscape:window-maximized="1" />
  <metadata
     id="metadata5">
    <rdf:RDF>
      <cc:Work
         rdf:about="">
        <dc:format>image/svg+xml</dc:format>
        <dc:type
           rdf:resource="http://purl.org/dc/dcmitype/StillImage" />
        <dc:title></dc:title>
      </cc:Work>
    </rdf:RDF>
  </metadata>
  <g
     inkscape:label="Layer 1"
     inkscape:groupmode="layer"
     id="layer1">
    <g
       id="g1111"
       transform="matrix(1.0783895,0,0,1.0741723,-233.79396,-211.05043)">
      <rect
         style="opacity:1;fill:#040707;fill-opacity:1;stroke:#a6a6a5;stroke-width:1.05833;stroke-miterlimit:4;stroke-dasharray:none;stroke-opacity:1"
         id="rect979"
         width="170.68694"
         height="50.667572"
         x="217.32837"
         y="197.00641"
         ry="6.2366071" />
      <g
         id="g1015"
         transform="translate(0,58.405414)">
        <path
           style="fill:#eb4335;fill-opacity:1;stroke:none;stroke-width:0.264583px;stroke-linecap:butt;stroke-linejoin:miter;stroke-opacity:1"
           d="m 243.60565,163.99442 -13.60714,13.4654 c 1.12645,3.35103 3.72013,3.04675 4.83118,2.44598 l 15.70208,-9.05376 z"
           id="path1003"
           sodipodi:nodetypes="ccccc" />
        <path
           style="fill:#fbbc12;fill-opacity:1;stroke:none;stroke-width:0.264583px;stroke-linecap:butt;stroke-linejoin:miter;stroke-opacity:1"
           d="m 243.60565,163.99442 7.05976,-7.00698 6.9156,4.07586 c 2.71415,2.69639 1.20588,4.98341 -0.13364,5.81311 l -6.9156,3.97563 z"
           id="path1005"
           sodipodi:nodetypes="cccccc" />
        <path
           style="fill:#30a953;fill-opacity:1;stroke:none;stroke-width:0.264583px;stroke-linecap:butt;stroke-linejoin:miter;stroke-opacity:1"
           d="m 243.60565,163.99442 -13.68704,-13.78895 c 0.65146,-1.51019 2.46398,-3.23076 4.67722,-2.40542 l 16.06958,9.18739 z"
           id="path1007"
           sodipodi:nodetypes="ccccc" />
        <path
           style="fill:#547dbf;fill-opacity:1;stroke:none;stroke-width:0.264583px;stroke-linecap:butt;stroke-linejoin:miter;stroke-opacity:1"
           d="m 229.91861,150.20547 0.0799,27.25435 13.60714,-13.4654 z"
           id="path1009"
           sodipodi:nodetypes="cccc" />
      </g>
      <text
         xml:space="preserve"
         style="font-size:11.3566px;line-height:1.25;font-family:sans-serif;fill:#ffffff;stroke-width:0.0283917"
         x="257.60498"
         y="224.07155"
         id="text1019"
         transform="scale(1.0472622,0.95487071)"><tspan
           sodipodi:role="line"
           id="tspan1017"
           x="257.60498"
           y="224.07155"
           style="font-style:normal;font-variant:normal;font-weight:bold;font-stretch:normal;font-family:'Trebuchet MS';-inkscape-font-specification:'Trebuchet MS Bold';fill:#ffffff;stroke-width:0.0283917">DISPONÍVEL NO</tspan></text>
      <g
         aria-label="Google Play"
         transform="matrix(0.90773456,0,0,1.1016436,0,58.813305)"
         id="text1023"
         style="font-size:20.9792px;line-height:1.25;font-family:sans-serif;fill:#ffffff;stroke-width:0.0524482">
        <path
           d="m 304.355,160.53416 c -4.19236,-0.5919 -7.73126,-3.27485 -7.76942,-7.23888 0.079,-8.17138 11.06801,-9.90674 15.72305,-5.89207 l -1.93103,1.56699 c -5.68677,-3.95303 -10.98356,0.57737 -11.06125,3.89822 -0.0604,2.58226 1.88933,5.26818 5.41312,5.54711 3.72397,0.41515 7.37461,-1.62862 7.09827,-4.01531 l -5.97527,-0.0403 -0.0816,-1.92137 8.67143,-0.0798 c 0.58109,4.74421 -2.53615,8.81476 -10.08733,8.1754 z"
           style="font-style:normal;font-variant:normal;font-weight:normal;font-stretch:normal;font-family:'Lucida Sans Unicode';-inkscape-font-specification:'Lucida Sans Unicode';fill:#ffffff;stroke-width:0.0524482"
           id="path1025"
           sodipodi:nodetypes="ccccsccccccc" />
        <path
           d="m 328.38457,155.52345 c 0.95469,-7.39829 12.36612,-5.21585 11.77843,0 0.38711,7.12505 -12.05395,6.69142 -11.77843,0 z m 9.38248,0.1501 c -0.49403,-4.25311 -7.09563,-3.19284 -6.83048,-0.03 0.32913,4.38044 6.53946,3.97117 6.83048,0.03 z"
           style="font-style:normal;font-variant:normal;font-weight:normal;font-stretch:normal;font-family:'Lucida Sans Unicode';-inkscape-font-specification:'Lucida Sans Unicode';fill:#ffffff;stroke-width:0.0524482"
           id="path1029"
           sodipodi:nodetypes="cccccc" />
        <path
           d="m 341.79236,162.1119 2.31238,-0.70093 c 1.84933,2.54743 5.17272,1.86501 6.20749,-0.2645 l 0.0364,-1.48149 c -5.23537,2.46246 -8.73912,-0.33593 -9.00459,-3.85298 0.0616,-2.05302 1.5034,-4.9263 5.7983,-4.92592 1.24291,0 2.44117,0.18581 3.16986,1.18584 l 0.0364,-0.93999 h 2.2833 v 8.09257 c 0,1.74143 0.09,1.25747 -0.0944,2.09063 -0.77874,5.6114 -9.96837,4.13116 -10.74519,0.79677 z m 5.51155,-9.3795 c -5.04983,0.52059 -3.93099,6.05238 -0.1809,6.00516 4.71746,-0.0782 4.13034,-6.16808 0.1809,-6.00516 z"
           style="font-style:normal;font-variant:normal;font-weight:normal;font-stretch:normal;font-family:'Lucida Sans Unicode';-inkscape-font-specification:'Lucida Sans Unicode';fill:#ffffff;stroke-width:0.0524482"
           id="path1031"
           sodipodi:nodetypes="cccccccccscccccc" />
        <path
           d="m 354.61405,160.24521 v -14.25352 h 2.4188 v 14.25352 z"
           style="font-style:normal;font-variant:normal;font-weight:normal;font-stretch:normal;font-family:'Lucida Sans Unicode';-inkscape-font-specification:'Lucida Sans Unicode';fill:#ffffff;stroke-width:0.0524482"
           id="path1033"
           sodipodi:nodetypes="ccccc" />
        <path
           d="m 369.37871,158.52165 c -9.0584,7.34206 -16.51062,-6.15366 -5.76653,-7.58327 3.44214,-0.10503 5.37012,1.88052 5.78179,3.52492 l -8.07326,2.88705 c 2.37478,2.25272 4.76073,1.27453 5.97123,0.0403 z m -8.48111,-2.96335 5.44778,-1.78318 c -0.43797,-0.77431 -1.23499,-1.31655 -2.75306,-1.08716 -0.98343,0.1486 -2.51716,0.8011 -2.69472,2.87034 z"
           style="font-style:normal;font-variant:normal;font-weight:normal;font-stretch:normal;font-family:'Lucida Sans Unicode';-inkscape-font-specification:'Lucida Sans Unicode';fill:#ffffff;stroke-width:0.0524482"
           id="path1035"
           sodipodi:nodetypes="ccccccccsc" />
        <path
           d="m 375.04445,160.39532 v -14.44024 l 6.53292,0.0901 c 1.18811,0.0164 2.10339,0.099 2.74533,0.29706 0.64876,0.19122 1.43306,1.07306 1.84282,1.56476 0.5395,0.64878 0.80926,1.53315 0.80926,2.65313 0,1.61169 -0.76495,2.27466 -1.85761,3.18976 -1.09267,0.91511 -2.64664,1.25465 -4.58466,1.19253 l -2.81084,-0.0901 v 5.54299 z m 2.67722,-7.50199 2.72889,0.0901 c 2.60059,0.0401 3.98359,-1.21271 4.07818,-2.74998 0.0702,-0.90612 -1.20039,-2.31232 -2.75302,-2.36986 l -4.01762,-0.0601 z"
           style="font-style:normal;font-variant:normal;font-weight:normal;font-stretch:normal;font-family:'Lucida Sans Unicode';-inkscape-font-specification:'Lucida Sans Unicode';fill:#ffffff;stroke-width:0.0524482"
           id="path1037"
           sodipodi:nodetypes="ccsccsssccccccccc" />
        <path
           d="m 388.59644,160.30525 v -14.34358 h 2.34593 v 14.34358 z"
           style="font-style:normal;font-variant:normal;font-weight:normal;font-stretch:normal;font-family:'Lucida Sans Unicode';-inkscape-font-specification:'Lucida Sans Unicode';fill:#ffffff;stroke-width:0.0524482"
           id="path1039"
           sodipodi:nodetypes="ccccc" />
        <path
           d="m 396.62041,160.57981 c -2.09404,-0.089 -3.96022,-1.07029 -3.97918,-2.5007 -0.60993,-4.25275 4.76267,-4.2087 7.63897,-3.44483 -1.10116,-3.0496 -4.6973,-1.95509 -5.1818,-0.84653 l -2.37021,-0.84182 c 2.2949,-3.73124 9.41197,-2.28121 9.93071,0.86044 0.0148,2.1731 0.0393,4.34605 0.0759,6.51895 0,0 -1.31051,-0.0132 -2.50213,-0.004 l -0.12691,-1.12934 c -0.68649,1.212 -2.57754,1.40522 -3.48535,1.38783 z m 3.65979,-4.13709 c -1.78012,-0.66646 -5.4732,-0.64396 -5.31179,0.99014 0.33808,2.21291 4.94926,1.30498 5.31179,-0.99014 z"
           style="font-style:normal;font-variant:normal;font-weight:normal;font-stretch:normal;font-family:'Lucida Sans Unicode';-inkscape-font-specification:'Lucida Sans Unicode';fill:#ffffff;stroke-width:0.0524482"
           id="path1041"
           sodipodi:nodetypes="ccccccccccccc" />
        <path
           d="m 404.90922,164.63931 2.58312,-4.84442 -4.44811,-8.72301 2.76488,0.12009 3.04006,6.1578 3.03658,-6.21784 2.9255,0.0497 -7.16758,13.5001 z"
           style="font-style:normal;font-variant:normal;font-weight:normal;font-stretch:normal;font-family:'Lucida Sans Unicode';-inkscape-font-specification:'Lucida Sans Unicode';opacity:1;fill:#ffffff;stroke-width:0.0524482"
           id="path1043"
           sodipodi:nodetypes="ccccccccc" />
      </g>
      <path
         d="m 286.28323,230.09031 c 0.86661,-8.15027 11.22516,-5.746 10.69169,0 0.35139,7.84927 -10.94179,7.37156 -10.69169,0 z m 8.5168,0.16536 c -0.44845,-4.68541 -6.44095,-3.51737 -6.20026,-0.0331 0.29876,4.82569 5.93609,4.37482 6.20026,0.0331 z"
         style="font-style:normal;font-variant:normal;font-weight:normal;font-stretch:normal;font-size:20.9792px;line-height:1.25;font-family:'Lucida Sans Unicode';-inkscape-font-specification:'Lucida Sans Unicode';opacity:1;fill:#ffffff;stroke-width:0.0524482"
         id="path1029-4"
         sodipodi:nodetypes="cccccc" />
    </g>
  </g>
</svg>
